<?xml version="1.0" encoding="UTF-8"?>
<svg id="Layer_2" data-name="Layer 2" xmlns="http://www.w3.org/2000/svg" viewBox="0 0 563.97 672.61">
  <g id="Layer_1-2" data-name="Layer 1">
    <g>
      <path d="M563.97,160.15v212.34h-150.61v-221.88h-221.45V0h209.79c7.47,0,14.62,2.96,19.91,8.24l135.57,135.51c4.35,4.35,6.79,10.25,6.79,16.4"/>
      <path d="M0,512.46v-212.34h150.61v221.88h221.45v150.61h-209.79c-7.47,0-14.62-2.96-19.91-8.24L6.79,528.87c-4.35-4.35-6.79-10.25-6.79-16.4"/>
      <polygon points="563.97 522.68 372.14 522.68 0 150.61 191.91 150.61 413.36 372.07 413.36 372.49 413.85 372.49 563.97 522.68"/>
    </g>
  </g>
</svg>